<svg width="32" height="32" viewBox="0 0 32 32" fill="none" xmlns="http://www.w3.org/2000/svg">
  <path 
    d="M16 2C8.268 2 2 8.268 2 16s6.268 14 14 14 14-6.268 14-14S23.732 2 16 2zm0 25.2c-6.186 0-11.2-5.014-11.2-11.2S9.814 4.8 16 4.8 27.2 9.814 27.2 16 22.186 27.2 16 27.2z" 
    fill="#1976d2"
  />
  <path 
    d="M16 7.2c-4.639 0-8.4 3.761-8.4 8.4s3.761 8.4 8.4 8.4 8.4-3.761 8.4-8.4-3.761-8.4-8.4-8.4zm0 14c-3.093 0-5.6-2.507-5.6-5.6s2.507-5.6 5.6-5.6 5.6 2.507 5.6 5.6-2.507 5.6-5.6 5.6z" 
    fill="#1976d2"
    fill-opacity="0.5"
  />
  <path 
    d="M16 10.4c-3.093 0-5.6 2.507-5.6 5.6s2.507 5.6 5.6 5.6 5.6-2.507 5.6-5.6-2.507-5.6-5.6-5.6zm0 8.4c-1.546 0-2.8-1.254-2.8-2.8s1.254-2.8 2.8-2.8 2.8 1.254 2.8 2.8-1.254 2.8-2.8 2.8z" 
    fill="#1976d2"
    fill-opacity="0.3"
  />
  <path 
    d="M16 13.6c-1.546 0-2.8 1.254-2.8 2.8s1.254 2.8 2.8 2.8 2.8-1.254 2.8-2.8-1.254-2.8-2.8-2.8zm0 2.8h-2.8v2.8h2.8v-2.8z" 
    fill="#1976d2"
    fill-opacity="0.1"
  />
</svg> 