<svg width="192" height="192" viewBox="0 0 192 192" fill="none" xmlns="http://www.w3.org/2000/svg">
  <path 
    d="M96 8C51.816 8 16 43.816 16 88s35.816 80 80 80 80-35.816 80-80S140.184 8 96 8zm0 144c-35.346 0-64-28.654-64-64s28.654-64 64-64 64 28.654 64 64-28.654 64-64 64z" 
    fill="#1976d2"
  />
  <path 
    d="M96 40c-26.51 0-48 21.49-48 48s21.49 48 48 48 48-21.49 48-48-21.49-48-48-48zm0 80c-17.673 0-32-14.327-32-32s14.327-32 32-32 32 14.327 32 32-14.327 32-32 32z" 
    fill="#1976d2"
    fill-opacity="0.5"
  />
  <path 
    d="M96 64c-17.673 0-32 14.327-32 32s14.327 32 32 32 32-14.327 32-32-14.327-32-32-32zm0 48c-8.837 0-16-7.163-16-16s7.163-16 16-16 16 7.163 16 16-7.163 16-16 16z" 
    fill="#1976d2"
    fill-opacity="0.3"
  />
  <path 
    d="M96 80c-8.837 0-16 7.163-16 16s7.163 16 16 16 16-7.163 16-16-7.163-16-16-16zm0 16h-16v16h16v-16z" 
    fill="#1976d2"
    fill-opacity="0.1"
  />
</svg> 